<?xml version="1.0" encoding="UTF-8"?>
<svg version="1.1" xmlns="http://www.w3.org/2000/svg" width="32" height="32">
<path d="M0 0 C-3.10815709 8.44382677 -6.20824206 16.83313674 -10 25 C-10.66 25 -11.32 25 -12 25 C-12.08152344 22.45767658 -12.14073716 19.91800798 -12.1875 17.375 C-12.21263672 16.66214844 -12.23777344 15.94929688 -12.26367188 15.21484375 C-12.33016969 10.38266923 -11.60981439 7.21634247 -9 3 C-5.99183388 -0.00816612 -4.13956266 -0.12295731 0 0 Z " fill="#17887D" transform="translate(29,7)"/>
<path d="M0 0 C6.26901362 0.36167386 6.26901362 0.36167386 9.21875 2.9375 C11.73819242 7.26917294 11.44041812 10.90190958 11.25 15.8125 C11.23195313 16.69615234 11.21390625 17.57980469 11.1953125 18.49023438 C11.14838513 20.66062543 11.07664731 22.83045519 11 25 C8.75390072 22.21045738 7.26843246 19.59714981 5.95703125 16.26953125 C5.60576172 15.38458984 5.25449219 14.49964844 4.89257812 13.58789062 C4.53615234 12.67201172 4.17972656 11.75613281 3.8125 10.8125 C3.44447266 9.88501953 3.07644531 8.95753906 2.69726562 8.00195312 C0 1.1612071 0 1.1612071 0 0 Z " fill="#1A897E" transform="translate(4,7)"/>
<path d="M0 0 C2.1875 1.8125 2.1875 1.8125 4 4 C4 7 4 7 2.6875 8.38671875 C1.125 9.59114583 -0.4375 10.79557292 -2 12 C-4.5 9.6875 -4.5 9.6875 -7 7 C-7 4 -7 4 -5.1875 1.8125 C-3 0 -3 0 0 0 Z " fill="#17857B" transform="translate(18,0)"/>
</svg>
